# xmcd CD database file generated by Grip 3.2.0
# 
# Track frame offsets:
#       150
#       17755
#       29807
#       43337
#       57982
#       75162
#       90017
#       103035
#       118630
#       134042
#       147197
#       159422
#       173702
#       192345
# 
# Disc length: 2732 seconds
# 
# Revision: 4
# Processed by: cddbd v1.5.1PL0 Copyright (c) Steve Scherf et al.
# Submitted via: Grip 3.2.0
# 
DISCID=b70aaa0e
DTITLE=Sippie Wallace - Women Be Wise
DYEAR=1966
DGENRE=Blues
TTITLE0=Women Be Wise
TTITLE1=Trouble Everywhere I Roam
TTITLE2=Lonesome Hours Blues
TTITLE3=Special Delivery Blues
TTITLE4=Murder Gonna Be My Crime
TTITLE5=SGambler's Dream
TTITLE6=Caldonia Blues
TTITLE7=You Got To Know How
TTITLE8=Shorty George Blues
TTITLE9=I'm a Mighty Tight Woman
TTITLE10=Bedroom Blues
TTITLE11=Up the Country Blues
TTITLE12=Suitcase Blues
TTITLE13=You Don't Know My Mind
EXTD=
EXTT0=
EXTT1=
EXTT2=
EXTT3=
EXTT4=
EXTT5=
EXTT6=
EXTT7=
EXTT8=
EXTT9=
EXTT10=
EXTT11=
EXTT12=
EXTT13=
PLAYORDER=
